<svg version="1.1" xmlns="http://www.w3.org/2000/svg" viewBox="-6.000001 -9.207591587684554 12.000002 20.06357820910118" fill="none" stroke="black" stroke-width="0.6%" vector-effect="non-scaling-stroke">
    <path d="M -3.53553 -2.88675 A 5 4.08248 360 0 1 -2.83165 -3.36469" />
    <path d="M 2.98114 -3.27748 A 5 4.08248 360 0 1 5 0 A 5 4.08248 360 0 1 -5 0 A 5 4.08248 360 0 1 -3.53553 -2.88675" />
    <path d="M -5 5.7735 A 5 4.08248 180 0 0 5 5.7735" />
    <path d="M 1.5961 2.07404 L 2.98114 0.27426 L 2.98114 -5.49925 L 2.12132 -7.50555 L -0.33589 -8.20759 L -2.54017 -7.07671 L -2.83165 -4.96449 L -0.99084 -3.46147 L 1.5961 -3.69946 L 2.98114 -5.49925" />
    <path d="M -2.83165 0.80902 L -0.99084 2.31203 L -0.99084 -3.46147" />
    <path d="M -0.99084 2.31203 L 1.5961 2.07404 L 1.5961 -3.69946" />
    <path d="M -2.83165 0.80902 L -2.83165 -4.96449" />
    <path d="M -5 0 L -5 5.7735" />
    <path d="M 5 0 L 5 5.7735" />
</svg>