<svg version="1.1" xmlns="http://www.w3.org/2000/svg" viewBox="-5.909903528863041 -7.94940380195872 11.81980705772608 15.898807603917437" fill="none" stroke="black" stroke-width="0.6%" vector-effect="non-scaling-stroke">
    <path d="M 4.72456 -4.97555 L 3.27327 -6.26783 L 0.94491 -6.9494 L -1.63663 -6.83763" />
    <path d="M 4.9099 4.55842 L 4.9099 -3.41882 L 4.72456 -4.97555" />
    <path d="M 4.9099 4.55842 L 1.63663 2.84901" />
    <path d="M 4.9099 -3.41882 L -1.63663 -6.83763" />
    <path d="M -1.63663 -2.84901 L -1.63663 -6.83763" />
    <path d="M -0.94491 6.9494 L 1.63663 6.83763 L 1.63663 -1.13961" />
    <path d="M -3.27327 6.26783 L -0.94491 6.9494 L -0.94491 -1.02784 L 1.63663 -1.13961" />
    <path d="M -4.72456 4.97555 L -3.27327 6.26783 L -3.27327 -1.70941 L -0.94491 -1.02784" />
    <path d="M -4.9099 3.41882 L -4.72456 4.97555 L -4.72456 -3.00169 L -3.27327 -1.70941" />
    <path d="M -4.9099 3.41882 L -4.9099 -4.55842 L 1.63663 -1.13961" />
    <path d="M -4.9099 -4.55842 L -4.72456 -3.00169" />
</svg>