<svg version="1.1" xmlns="http://www.w3.org/2000/svg" viewBox="-7.275104132685075 -11.631402662054697 14.663963457030992 22.909042020530947" fill="none" stroke="black" stroke-width="0.6%" vector-effect="non-scaling-stroke">
    <path d="M 6.38886 6.86882 L 5.54187 5.30903 L -2.13489 -6.78029" />
    <path d="M 6.38886 6.86882 L -2.13489 -7.89201 L -2.13489 -7.89201 C 1.87 -0.96 1.83 -1.03 1.79041 -1.10228 C 1.75 -1.17 1.72 -1.25 1.67824 -1.31997 C 1.65 -1.38 1.62 -1.45 1.58444 -1.51448 C 1.55 -1.58 1.52 -1.65 1.49206 -1.71758" />
    <path d="M -5.0209 1.34476 L -6.2751 -1.14128" />
    <path d="M -5.07367 1.1249 L -6.2751 -1.65723 L -6.2751 -1.14128" />
    <path d="M -3.58553 7.32503 L -6.2751 -3.88067 L -6.2751 -3.88067 L -6.2751 -1.65723" />
    <path d="M -3.58553 7.32503 L -2.73854 8.88483 L -0.78219 9.96556 L 1.75932 10.27764 L 2.04827 10.21382 L 4.205 9.73745 L 5.69933 8.63715 L 5.89953 8.48974 L 6.38886 6.86882" />
    <path d="M -2.73854 8.88483 L -6.2751 -4.99239 L -6.2751 -3.88067" />
    <path d="M -0.78219 9.96556 L -6.2751 -6.10411 L -6.2751 -4.99239" />
    <path d="M 1.75932 10.27764 L -6.2751 -8.32755 L -6.2751 -6.10411" />
    <path d="M 2.04827 10.21382 L -6.2751 -8.8435 L -6.2751 -8.32755" />
    <path d="M 4.205 9.73745 L -4.205 -9.73745 L -6.2751 -8.8435" />
    <path d="M 5.69933 8.63715 L -2.13489 -10.6314 L -2.13489 -10.6314 L -4.205 -9.73745" />
    <path d="M 5.89953 8.48974 L -2.13489 -10.11545 C 1.48 -1.74 1.42 -1.88 1.36241 -2.02964" />
</svg>