<svg version="1.1" xmlns="http://www.w3.org/2000/svg" viewBox="-5.8296301314453425 -7.870871583764658 11.659260262890685 15.741743167529314" fill="none" stroke="black" stroke-width="0.6%" vector-effect="non-scaling-stroke">
    <path d="M 4.82963 -4.82963 L 3.53553 -6.12372 L 1.2941 -6.87087 L -1.2941 -6.87087 L -3.53553 -6.12372 L -4.82963 -4.82963 L -4.82963 -3.33534 L -3.53553 -2.04124 L -1.2941 -1.2941 L 1.2941 -1.2941 L 3.53553 -2.04124 L 4.82963 -3.33534 L 4.82963 -4.82963 Z" />
    <path d="M -4.82963 4.82963 L -4.82963 -3.33534" />
    <path d="M -3.53553 6.12372 L -3.53553 -2.04124" />
    <path d="M -4.82963 4.82963 L -3.53553 6.12372 L -1.2941 6.87087 L 1.2941 6.87087 L 3.53553 6.12372 L 4.82963 4.82963 L 4.82963 -3.33534" />
    <path d="M -1.2941 6.87087 L -1.2941 -1.2941" />
    <path d="M 1.2941 6.87087 L 1.2941 -1.2941" />
    <path d="M 3.53553 6.12372 L 3.53553 -2.04124" />
</svg>